<svg version="1.1" id="Capa_1" xmlns="http://www.w3.org/2000/svg" x="0" y="0" viewBox="0 0 60.1 60.1" xml:space="preserve"><style>.st0{fill:#fff}</style><path class="st0" d="M57.1 51.9H16.9c-1.7 0-3-1.3-3-3s1.3-3 3-3h40.2c1.7 0 3 1.3 3 3s-1.3 3-3 3zm0-18.8H16.9c-1.7 0-3-1.3-3-3s1.3-3 3-3h40.2c1.7 0 3 1.3 3 3 0 1.6-1.3 3-3 3zm0-18.9H16.9c-1.7 0-3-1.3-3-3s1.3-3 3-3h40.2c1.7 0 3 1.3 3 3s-1.3 3-3 3z"/><circle class="st0" cx="4" cy="11.5" r="4"/><circle class="st0" cx="4" cy="30.1" r="4"/><circle class="st0" cx="4" cy="48.7" r="4"/></svg>