<svg xmlns="http://www.w3.org/2000/svg" viewBox="0 0 126.04 126.04"><defs><clipPath id="a"><path fill="none" d="M0 0h126.04v126.04H0z"/></clipPath><style>.b{fill:#545352}</style></defs><path class="b" d="M44.12 42.01h4.2v4.2h-4.2zm0 8.41h4.2v4.2h-4.2zm0 8.4h4.2v4.2h-4.2zm0 8.4h4.2v4.2h-4.2zm8.4-25.21h4.2v4.2h-4.2zm0 8.41h4.2v4.2h-4.2zm0 8.4h4.2v4.2h-4.2zm0 8.4h4.2v4.2h-4.2zm8.4-25.21h4.2v4.2h-4.2zm0 8.41h4.2v4.2h-4.2zm0 8.4h4.2v4.2h-4.2zm0 8.4h4.2v4.2h-4.2zm8.4-25.21h4.2v4.2h-4.2zm-16.8-8.4h4.2v4.2h-4.2zm8.4 0h4.2v4.2h-4.2zm8.4 0h4.2v4.2h-4.2zm0 16.81h4.2v4.2h-4.2zm0 8.4h4.2v4.2h-4.2zm0 8.4h4.2v4.2h-4.2zm8.41-25.21h4.2v4.2h-4.2zm0 8.41h4.2v4.2h-4.2zm0 8.4h4.2v4.2h-4.2zm0 8.4h4.2v4.2h-4.2z"/><g clip-path="url(#a)"><path class="b" d="M124 31.51H92.43V2.1a2.1 2.1 0 00-2.1-2.1H35.71a2.1 2.1 0 00-2.1 2.1v29.41H2.1a2.1 2.1 0 00-2.1 2.1v75.63a2.1 2.1 0 002.1 2.1h4.39a13.33 13.33 0 00-.19 2.1v10.5A2.1 2.1 0 008.4 126h109.24a2.1 2.1 0 002.1-2.1v-10.5a12.24 12.24 0 00-.19-2.1h4.39a2.1 2.1 0 002.1-2.1V33.61a2.1 2.1 0 00-2.09-2.1M90.33 90.33a4.2 4.2 0 11-4.2-4.2 4.2 4.2 0 014.2 4.2m-50.42-4.2a4.2 4.2 0 11-4.2 4.2 4.2 4.2 0 014.2-4.2m-12.6 35.71H10.5v-8.4a8.41 8.41 0 0116.81 0zM14.7 96.63a4.21 4.21 0 114.21 4.2 4.21 4.21 0 01-4.21-4.2m12.93 7.73a13.3 13.3 0 00-2.64-2 8.4 8.4 0 10-12.16 0A12.68 12.68 0 008 107.14H4.2V35.71h29.41v49.12a8.29 8.29 0 00.22 11.27 12.64 12.64 0 00-6.2 8.26m20.69 17.48H31.51v-14.7a8.41 8.41 0 1116.81 0zm25.21 0h-21v-14.7a10.51 10.51 0 1121 0zM56.72 86.13a6.3 6.3 0 116.3 6.3 6.3 6.3 0 01-6.3-6.3m19.1 13.78a14.82 14.82 0 00-6-5.82A10.5 10.5 0 1055 92.83a10 10 0 001.26 1.26 14.8 14.8 0 00-6 5.82A12.8 12.8 0 0046 96.1a8.34 8.34 0 00-8.18-13.87V4.2h50.41v78a8.26 8.26 0 00-2.1-.3 8.38 8.38 0 00-6.08 14.2 12.67 12.67 0 00-4.23 3.81m18.71 13.53v8.4h-16.8v-14.7a8.4 8.4 0 1116.8 0zm21 8.4h-16.8v-8.4a8.41 8.41 0 0116.81 0zm-12.6-25.21a4.2 4.2 0 114.2 4.2 4.2 4.2 0 01-4.2-4.2m18.9 10.51H118a12.71 12.71 0 00-4.83-4.74 8.4 8.4 0 10-12.15 0 12.65 12.65 0 00-2.64 2 12.65 12.65 0 00-6.21-8.26 8.28 8.28 0 00.22-11.27V35.71h29.41z"/><path class="b" d="M98.73 48.32h4.2v33.61h-4.2zm12.61 0h4.2v33.61h-4.2zm-100.84 0h4.2v33.61h-4.2zm12.61 0h4.2v33.61h-4.2zM75.63 8.4H50.42a2.1 2.1 0 00-2.1 2.1v16.81a2.09 2.09 0 002.1 2.1h25.21a2.1 2.1 0 002.1-2.1V10.5a2.1 2.1 0 00-2.1-2.1m-2.1 16.81h-21V12.6h21z"/></g></svg>