<svg xmlns="http://www.w3.org/2000/svg" viewBox="0 0 480 480"><path d="M440 464v-41.4c15.4-6.5 25-21.9 24-38.6 0-22.1-14.4-40-32-40s-32 17.9-32 40c-1 16.6 8.6 32.1 24 38.6V464h-40V216c0-3-1.7-5.8-4.4-7.2L320 179.1V136c0-3.6-2.4-6.7-5.8-7.7L208 98V8c0-4.4-3.6-8-8-8H40c-4.4 0-8 3.6-8 8v456H0v16h480v-16h-40zm-248 0H48v-16h72v-16H48v-32h72v-16H48v-32h72v-16H48v-32h72v-16H48v-32h72v-16H48v-32h72v-16H48v-32h72v-16H48v-32h72V96H48V64h72V48H48V16h144v448zm112 0h-96v-16h56v-16h-56v-32h56v-16h-56v-32h56v-16h-56v-32h56v-16h-56v-32h56v-16h-56v-32h56v-16h-56v-32h56v-16h-56v-29.4l96 27.4v322zm64 0h-48v-16h24v-16h-24v-32h24v-16h-24v-32h24v-16h-24v-32h24v-16h-24v-32h24v-16h-24v-43.1l48 24V464zm56-59.4c-5.4-5.5-8.3-12.9-8-20.6 0-13 7.3-24 16-24s16 11 16 24c.3 7.7-2.6 15.1-8 20.6V392h-16v12.6z" fill="#e5e5e5"/></svg>