<svg version="1.1" id="Layer_1" xmlns="http://www.w3.org/2000/svg" x="0" y="0" viewBox="0 0 338.4 338.4" xml:space="preserve"><style>.st0{fill:#f49b25}</style><path class="st0" d="M169.2 0C75.6 0 0 75.5 0 169.2s75.5 169.2 169.2 169.2 169.2-75.5 169.2-169.2S262.8 0 169.2 0zm0 315.7c-81.2 0-146.6-65.4-146.6-146.6S88 22.6 169.2 22.6 315.7 88 315.7 169.2s-65.3 146.5-146.5 146.5z"/><path class="st0" d="M231.2 162.4L156.8 88c-4.5-4.5-11.3-4.5-15.8 0s-4.5 11.3 0 15.8l65.4 65.4-65.4 65.3c-4.5 4.5-4.5 11.3 0 15.8 2.2 2.2 4.5 3.4 7.9 3.4 2.2 0 5.7-1.1 9-2.2l73.3-73.3c2.2-2.2 3.4-4.5 3.4-7.9-.1-3.4-1.2-5.7-3.4-7.9z"/></svg>