<svg fill="#ff9e1b" id="fi_1833015" enable-background="new 0 0 64 64" height="512" viewBox="0 0 64 64" width="512" xmlns="http://www.w3.org/2000/svg"><path d="m61.502 12.491h-7.496c-.103 0-.195.029-.288.058-1.501.145-2.683 1.387-2.709 2.919 0 .009-.005.017-.005.025v3.996h-2.056c-.232-1.139-1.242-1.998-2.449-1.998-1.209 0-2.219.861-2.45 2.003h-1.064v-3.003c0-.011-.006-.02-.006-.03-.002-.066-.024-.13-.04-.195s-.023-.132-.052-.192c-.004-.009-.003-.02-.008-.029l-3.363-6.727c.275-.178.469-.474.469-.826 0-.553-.447-1-1-1h-20.003c-.553 0-1 .447-1 1 0 .353.193.648.469.826l-3.363 6.727c-.005.01-.004.021-.008.03-.028.059-.036.125-.052.19-.016.066-.038.13-.04.196 0 .011-.006.02-.006.03v3.003h-1.029c-.231-1.142-1.241-2.003-2.45-2.003-1.208 0-2.217.86-2.449 2h-4.057c-2.757 0-5 2.243-5 5v9.004c0 .553.447 1 1 1h8.006v13.754c-1.211.808-2.011 2.185-2.011 3.746 0 2.482 2.02 4.502 4.503 4.502 2.482 0 4.502-2.02 4.502-4.502 0-1.558-.795-2.932-2-3.74v-5.763h30.002v12.017h-1c-.553 0-1 .447-1 1s.447 1 1 1h7c.553 0 1-.447 1-1s-.447-1-1-1h-1v-30.012h4c1.647 0 2.987-1.333 3.002-2.978.001-.01.006-.019.006-.028v-3.997h5.495c.011 0 .019-.006.029-.006 1.365-.016 2.471-1.128 2.471-2.497 0-1.379-1.121-2.5-2.5-2.5zm-47.499 25v-12.998h.979v7.001c0 2.757 2.243 5 5 5h18.003c2.757 0 5-2.243 5-5 0-.002-.001-.003-.001-.005v-6.996h1.015v12.998zm23.363-28 3 6h-22.765l3-6zm3.618 8v14.003c0 .001.001.002.001.003-.002 1.653-1.347 2.997-3 2.997h-18.003c-1.654 0-3-1.346-3-3v-7.919c.002-.028.017-.053.017-.082s-.015-.054-.017-.082v-2.835c.002-.028.017-.053.017-.082s-.015-.054-.017-.082v-2.921zm3.015 4.003v.999h-1.015v-.999zm-29.017.999h-.979v-.999h.979zm-12.985 10.002v-.998h.999c.553 0 1-.447 1-1s-.447-1-1-1h-.999v-1.003h.999c.553 0 1-.447 1-1s-.447-1-1-1h-.999v-1.003h.999c.553 0 1-.447 1-1s-.447-1-1-1h-.814c.414-1.161 1.514-2 2.815-2h4.006v11.004zm9.498 22.002c-1.38 0-2.503-1.122-2.503-2.502s1.123-2.503 2.503-2.503 2.502 1.123 2.502 2.503-1.122 2.502-2.502 2.502zm34.504.012v-13.017c0-.553-.447-1-1-1h-32.002c-.553 0-1 .447-1 1v6.051c-.167-.019-.33-.051-.502-.051-.169 0-.328.031-.492.05v-27.551c0-.275.225-.5.5-.5s.5.225.5.5v18.471c0 .011-.006.019-.006.029 0 .553.447 1 1 1h32.002c.553 0 1-.447 1-1v-18.5c0-.275.225-.5.5-.5s.5.225.5.5v34.518zm7-32.012h-4v-1.008h3c.002 0 .003.001.005.001.553 0 1-.447 1-1v-4.972c0-.551.447-.998.998-.998.052 0 .096-.021.146-.029h7.354c.275 0 .5.225.5.5s-.225.5-.5.5c-.005 0-.01.003-.015.003h-6.48c-.553 0-1 .447-1 1v4.983c0 .005-.003.01-.003.015 0 .554-.451 1.005-1.005 1.005z"></path><path d="m11.525 50.995h-.011c-.552 0-.994.447-.994 1s.452 1 1.005 1c.552 0 1-.447 1-1s-.448-1-1-1z"></path></svg>

