
<svg fill="#efefef" id="icons" enable-background="new 0 0 64 64" height="512" viewBox="0 0 64 64" width="512" xmlns="http://www.w3.org/2000/svg"><path d="m1.006 11c-.553 0-1 .447-1 1v5 5 5 5 5 5 5 5c0 .553.447 1 1 1h10 10 10 10 10 10c.553 0 1-.447 1-1v-5c0-.553-.447-1-1-1h-4v-4c0-.553-.447-1-1-1h-4v-4c0-.553-.447-1-1-1h-4v-4c0-.553-.447-1-1-1h-4v-4c0-.553-.447-1-1-1h-4v-4c0-.553-.447-1-1-1h-4v-4c0-.553-.447-1-1-1h-4v-4c0-.553-.447-1-1-1h-10-10zm15 7h4v3h-4-4v-3zm29 28h-4-4v-3h4 4zm-14 0h-4v-3h4 4v3zm-10 0h-4v-3h4 4v3zm-10 0h-4v-3h4 4v3zm-9 0v-3h3v3zm9-23h4v3h-4-4v-3zm19 18h-4-4v-3h4 4zm-14 0h-4v-3h4 4v3zm-10 0h-4v-3h4 4v3zm-4-8h3v3h-3zm0-5h4 4v3h-4-4zm13 8h-4-4v-3h4 4zm10 0h-4-4v-3h4 4zm-5-5h-4-4v-3h4 4zm-15-5h-3v-3h3zm35 15h-4-4v-3h4 4zm-5-5h-4-4v-3h4 4zm-5-5h-4-4v-3h4 4zm-5-5h-4-4v-3h4 4zm-15-5h-4-4v-3h4 4zm-8-8h3v3h-3zm0 35h4 4v3h-8zm10 0h4 4v3h-8zm10 0h4 4v3h-8zm10 0h4 4v3h-8zm10 0h4 4v3h-8zm18 3h-8v-3h4 4zm-5-5h-4-4v-3h4 4zm-5-5h-4-4v-3h4 4zm-5-5h-4-4v-3h4 4zm-5-5h-4-4v-3h4 4zm-5-5h-4-4v-3h4 4zm-5-5h-4-4v-3h4 4zm-5-5h-4-4v-3h8zm-10 0h-4-4v-3h8z"/><path d="m63.994 19.009c0-2.448-3.525-6.797-4.232-7.644-.379-.455-1.156-.455-1.535 0-.707.847-4.232 5.195-4.232 7.644 0 2.414 1.721 4.435 4 4.898l-.002 2.104h-1.003c-.553 0-1 .447-1 1v6c0 1.654 1.346 3 3 3s3-1.346 3-3v-6c0-.553-.447-1-1-1h-.998l.002-2.103c2.279-.465 4-2.484 4-4.899zm-5.004 15.002c-.552 0-1-.448-1-1v-5h2v5c0 .552-.448 1-1 1zm-2.996-15.002c0-1.073 1.57-3.531 3-5.399 1.431 1.867 3 4.324 3 5.399 0 1.654-1.346 3-3 3s-3-1.346-3-3z"/></svg>
