<svg version="1.1" id="Capa_1" xmlns="http://www.w3.org/2000/svg" xmlns:xlink="http://www.w3.org/1999/xlink" x="0px" y="0px"
	 viewBox="0 0 480 480" style="enable-background:new 0 0 480 480;" xml:space="preserve">
<style type="text/css">
	.st0{fill:#545353;}
</style>
<g>
	<g>
		<g>
			<path class="st0" d="M472,464h-48V200c0-4.4-3.6-8-8-8H304V8c0-4.4-3.6-8-8-8H88c-4.4,0-8,3.6-8,8v456H8c-4.4,0-8,3.6-8,8
				s3.6,8,8,8h464c4.4,0,8-3.6,8-8S476.4,464,472,464z M168,464h-32v-72c0-4.4,3.6-8,8-8h16c4.4,0,8,3.6,8,8V464z M200,200v264h-16
				v-72c0-13.3-10.7-24-24-24h-16c-13.3,0-24,10.7-24,24v72H96V16h192v176h-80C203.6,192,200,195.6,200,200z M408,464H216V208h192
				V464z"/>
			<path class="st0" d="M256,112h-48c-4.4,0-8,3.6-8,8v48c0,4.4,3.6,8,8,8h48c4.4,0,8-3.6,8-8v-48C264,115.6,260.4,112,256,112z
				 M248,160h-32v-32h32V160z"/>
			<path class="st0" d="M256,32h-48c-4.4,0-8,3.6-8,8v48c0,4.4,3.6,8,8,8h48c4.4,0,8-3.6,8-8V40C264,35.6,260.4,32,256,32z M248,80
				h-32V48h32V80z"/>
			<path class="st0" d="M176,112h-48c-4.4,0-8,3.6-8,8v48c0,4.4,3.6,8,8,8h48c4.4,0,8-3.6,8-8v-48C184,115.6,180.4,112,176,112z
				 M168,160h-32v-32h32V160z"/>
			<path class="st0" d="M176,32h-48c-4.4,0-8,3.6-8,8v48c0,4.4,3.6,8,8,8h48c4.4,0,8-3.6,8-8V40C184,35.6,180.4,32,176,32z M168,80
				h-32V48h32V80z"/>
			<path class="st0" d="M176,192h-48c-4.4,0-8,3.6-8,8v48c0,4.4,3.6,8,8,8h48c4.4,0,8-3.6,8-8v-48C184,195.6,180.4,192,176,192z
				 M168,240h-32v-32h32V240z"/>
			<path class="st0" d="M176,272h-48c-4.4,0-8,3.6-8,8v48c0,4.4,3.6,8,8,8h48c4.4,0,8-3.6,8-8v-48C184,275.6,180.4,272,176,272z
				 M168,320h-32v-32h32V320z"/>
			<path class="st0" d="M328,368h48c4.4,0,8-3.6,8-8v-48c0-4.4-3.6-8-8-8h-48c-4.4,0-8,3.6-8,8v48C320,364.4,323.6,368,328,368z
				 M336,320h32v32h-32V320z"/>
			<path class="st0" d="M328,288h48c4.4,0,8-3.6,8-8v-48c0-4.4-3.6-8-8-8h-48c-4.4,0-8,3.6-8,8v48C320,284.4,323.6,288,328,288z
				 M336,240h32v32h-32V240z"/>
			<path class="st0" d="M328,448h48c4.4,0,8-3.6,8-8v-48c0-4.4-3.6-8-8-8h-48c-4.4,0-8,3.6-8,8v48C320,444.4,323.6,448,328,448z
				 M336,400h32v32h-32V400z"/>
			<path class="st0" d="M248,368h48c4.4,0,8-3.6,8-8v-48c0-4.4-3.6-8-8-8h-48c-4.4,0-8,3.6-8,8v48C240,364.4,243.6,368,248,368z
				 M256,320h32v32h-32V320z"/>
			<path class="st0" d="M248,288h48c4.4,0,8-3.6,8-8v-48c0-4.4-3.6-8-8-8h-48c-4.4,0-8,3.6-8,8v48C240,284.4,243.6,288,248,288z
				 M256,240h32v32h-32V240z"/>
			<path class="st0" d="M248,448h48c4.4,0,8-3.6,8-8v-48c0-4.4-3.6-8-8-8h-48c-4.4,0-8,3.6-8,8v48C240,444.4,243.6,448,248,448z
				 M256,400h32v32h-32V400z"/>
		</g>
	</g>
</g>
</svg>
