<svg version="1.1" id="Camada_1" xmlns="http://www.w3.org/2000/svg" xmlns:xlink="http://www.w3.org/1999/xlink" x="0px" y="0px"
	 viewBox="0 0 496 496" style="enable-background:new 0 0 496 496;" xml:space="preserve">
<style type="text/css">
	.st0{fill:#545353;}
</style>
<g>
	<path class="st0" d="M416,480H256v-12.7l36.9-36.9c5.4,10.1,15.6,16.8,27.1,17.6c22.4,0,40-29.9,40-68s-17.6-68-40-68
		s-40,29.9-40,68c-0.1,11.9,1.8,23.8,5.6,35.1L256,444.7V327.4c53.6-6.5,96-77.2,96-163.4C352,73.6,305.3,0,248,0S144,73.6,144,164
		c0,86.2,42.4,156.9,96,163.4V480H48c-4.4,0-8,3.6-8,8s3.6,8,8,8h368c4.4,0,8-3.6,8-8S420.4,480,416,480z M296,380
		c0-30.6,12.6-52,24-52s24,21.4,24,52s-12.6,52-24,52c-5.4,0-11-4.8-15.5-13.2l21.2-21.2c3-3.1,3-8.1-0.1-11.2s-8.1-3.1-11.2-0.1
		l-15.9,15.9C296.8,394.9,296,387.5,296,380z M160,164c0-81.6,39.5-148,88-148s88,66.4,88,148c0,77.1-35.2,140.5-80,147.3v-60
		l45.7-45.7c3-3.1,3-8.1-0.1-11.2s-8.1-3.1-11.2-0.1L256,228.7V160c0-4.4-3.6-8-8-8s-8,3.6-8,8v44.7l-50.3-50.3
		c-3.1-3-8.1-3-11.2,0.1s-3.1,8.1-0.1,11.2l61.7,61.7v84C195.2,304.5,160,241.1,160,164z"/>
	<path class="st0" d="M448,480h-8c-4.4,0-8,3.6-8,8s3.6,8,8,8h8c4.4,0,8-3.6,8-8S452.4,480,448,480z"/>
	<path class="st0" d="M312,192c2.1,0,4.2-0.8,5.7-2.3l8-8c3-3.1,3-8.1-0.1-11.2s-8.1-3.1-11.2-0.1l-8,8c-2.3,2.3-3,5.7-1.7,8.7
		S308.8,192,312,192z"/>
</g>
</svg>
