<svg xmlns="http://www.w3.org/2000/svg" xmlns:xlink="http://www.w3.org/1999/xlink" viewBox="0 0 126.04 126.04"><defs><style>.a{fill:none;}.b{fill:#545352;}.c{clip-path:url(#a);}</style><clipPath id="a"><rect class="a" width="126.04" height="126.04"/></clipPath></defs><title>424856</title><rect class="b" x="44.12" y="42.01" width="4.2" height="4.2"/><rect class="b" x="44.12" y="50.42" width="4.2" height="4.2"/><rect class="b" x="44.12" y="58.82" width="4.2" height="4.2"/><rect class="b" x="44.12" y="67.22" width="4.2" height="4.2"/><rect class="b" x="52.52" y="42.01" width="4.2" height="4.2"/><rect class="b" x="52.52" y="50.42" width="4.2" height="4.2"/><rect class="b" x="52.52" y="58.82" width="4.2" height="4.2"/><rect class="b" x="52.52" y="67.22" width="4.2" height="4.2"/><rect class="b" x="60.92" y="42.01" width="4.2" height="4.2"/><rect class="b" x="60.92" y="50.42" width="4.2" height="4.2"/><rect class="b" x="60.92" y="58.82" width="4.2" height="4.2"/><rect class="b" x="60.92" y="67.22" width="4.2" height="4.2"/><rect class="b" x="69.32" y="42.01" width="4.2" height="4.2"/><rect class="b" x="52.52" y="33.61" width="4.2" height="4.2"/><rect class="b" x="60.92" y="33.61" width="4.2" height="4.2"/><rect class="b" x="69.32" y="33.61" width="4.2" height="4.2"/><rect class="b" x="69.32" y="50.42" width="4.2" height="4.2"/><rect class="b" x="69.32" y="58.82" width="4.2" height="4.2"/><rect class="b" x="69.32" y="67.22" width="4.2" height="4.2"/><rect class="b" x="77.73" y="42.01" width="4.2" height="4.2"/><rect class="b" x="77.73" y="50.42" width="4.2" height="4.2"/><rect class="b" x="77.73" y="58.82" width="4.2" height="4.2"/><rect class="b" x="77.73" y="67.22" width="4.2" height="4.2"/><g class="c"><path class="b" d="M124,31.51H92.43V2.1A2.1,2.1,0,0,0,90.33,0H35.71a2.1,2.1,0,0,0-2.1,2.1h0V31.51H2.1A2.1,2.1,0,0,0,0,33.61H0v75.63a2.1,2.1,0,0,0,2.1,2.1H6.49a13.33,13.33,0,0,0-.19,2.1v10.5A2.1,2.1,0,0,0,8.4,126H117.64a2.1,2.1,0,0,0,2.1-2.1h0v-10.5a12.24,12.24,0,0,0-.19-2.1h4.39a2.1,2.1,0,0,0,2.1-2.1h0V33.61a2.1,2.1,0,0,0-2.09-2.1M90.33,90.33a4.2,4.2,0,1,1-4.2-4.2,4.2,4.2,0,0,1,4.2,4.2m-50.42-4.2a4.2,4.2,0,1,1-4.2,4.2,4.2,4.2,0,0,1,4.2-4.2m-12.6,35.71H10.5v-8.4a8.41,8.41,0,0,1,16.81,0ZM14.7,96.63a4.21,4.21,0,1,1,4.21,4.2,4.21,4.21,0,0,1-4.21-4.2m12.93,7.73a13.3,13.3,0,0,0-2.64-2,8.4,8.4,0,1,0-12.16,0A12.68,12.68,0,0,0,8,107.14H4.2V35.71H33.61V84.83a8.29,8.29,0,0,0,.22,11.27,12.64,12.64,0,0,0-6.2,8.26m20.69,17.48H31.51v-14.7a8.41,8.41,0,1,1,16.81,0Zm25.21,0h-21v-14.7a10.51,10.51,0,1,1,21,0ZM56.72,86.13a6.3,6.3,0,1,1,6.3,6.3,6.3,6.3,0,0,1-6.3-6.3m19.1,13.78a14.82,14.82,0,0,0-6-5.82A10.5,10.5,0,1,0,55,92.83a10,10,0,0,0,1.26,1.26,14.8,14.8,0,0,0-6,5.82A12.8,12.8,0,0,0,46,96.1a8.34,8.34,0,0,0-8.18-13.87V4.2H88.23v78a8.26,8.26,0,0,0-2.1-.3A8.38,8.38,0,0,0,80.05,96.1a12.67,12.67,0,0,0-4.23,3.81m18.71,13.53v8.4H77.73v-14.7a8.4,8.4,0,1,1,16.8,0Zm21,8.4H98.73v-8.4a8.41,8.41,0,0,1,16.81,0Zm-12.6-25.21a4.2,4.2,0,1,1,4.2,4.2,4.2,4.2,0,0,1-4.2-4.2m18.9,10.51H118a12.71,12.71,0,0,0-4.83-4.74,8.4,8.4,0,1,0-12.15,0,12.65,12.65,0,0,0-2.64,2,12.65,12.65,0,0,0-6.21-8.26,8.28,8.28,0,0,0,.22-11.27V35.71h29.41Z"/><rect class="b" x="98.73" y="48.32" width="4.2" height="33.61"/><rect class="b" x="111.34" y="48.32" width="4.2" height="33.61"/><rect class="b" x="10.5" y="48.32" width="4.2" height="33.61"/><rect class="b" x="23.11" y="48.32" width="4.2" height="33.61"/><path class="b" d="M75.63,8.4H50.42a2.1,2.1,0,0,0-2.1,2.1h0V27.31a2.09,2.09,0,0,0,2.1,2.1H75.63a2.1,2.1,0,0,0,2.1-2.1h0V10.5a2.1,2.1,0,0,0-2.1-2.1m-2.1,16.81h-21V12.6h21Z"/></g></svg>
