<?xml version="1.0" encoding="utf-8"?>
<!-- Generator: Adobe Illustrator 22.1.0, SVG Export Plug-In . SVG Version: 6.00 Build 0)  -->
<svg version="1.1" id="Camada_1" xmlns="http://www.w3.org/2000/svg" xmlns:xlink="http://www.w3.org/1999/xlink" x="0px" y="0px"
	 viewBox="0 0 480 480" style="enable-background:new 0 0 480 480;" xml:space="preserve">
<style type="text/css">
	.st0{fill:#535353;}
</style>
<path class="st0" d="M192.6,72.8l5.1-11.9l14.7,6.3l-5.1,11.9L192.6,72.8z"/>
<path class="st0" d="M173.8,116.8l13.7-32l14.7,6.3l-13.7,32L173.8,116.8z"/>
<path class="st0" d="M454.4,107.2c-1.5-2-3.9-3.2-6.4-3.2h-72c-4.4,0-8,3.6-8,8v24h-18.7L303.4,28.8c-1.3-2.9-4.2-4.8-7.4-4.8H184
	c-3.2,0-6.1,1.9-7.4,4.8L130.7,136H112v-24c0-4.4-3.6-8-8-8H72c-4.4,0-8,3.6-8,8v10.3L47.8,85.8C46.6,73,35.6,63.4,22.8,64
	C10,64.6,0,75.2,0,88v144c0,13.3,10.7,24,24,24s24-10.7,24-24v-6.1l16-32v138.8c-28.1,11.3-44.4,40.8-39.1,70.7
	c5.3,29.8,30.9,51.8,61.2,52.7s57-19.6,64.1-49.1l181.6-36.3c-11.7,33,5.2,69.3,38,81.4c32.8,12.2,69.3-4.2,82-36.9
	c12.6-32.6-3.3-69.4-35.7-82.5V312h24c4.4,0,8-3.6,8-8v-24h24c4.4,0,8-3.6,8-8V144c0-1.7-0.6-3.4-1.6-4.8L454.4,107.2z M144,184h192
	v24c0,30.9-25.1,56-56,56h-80c-30.9,0-56-25.1-56-56V184z M336,168H144v-16h192V168z M200,280h80c39.7,0,72-32.3,72-72v-24h16v112
	H112V184h16v24C128,247.7,160.3,280,200,280z M112,312h256v16H112V312z M368,168h-16v-16h16V168z M189.3,40h101.5l41.1,96H148.1
	L189.3,40z M128,152v16h-16v-16H128z M48,125.7L59.7,152H48V125.7z M32,232c0,4.4-3.6,8-8,8s-8-3.6-8-8V88c0-4.4,3.6-8,8-8
	s8,3.6,8,8V232z M48,168h11.1L48,190.1V168z M80,120h16v208.6c-5.3-0.7-10.7-0.7-16,0V120z M88,440c-26.5,0-48-21.5-48-48
	s21.5-48,48-48s48,21.5,48,48C136,418.5,114.5,440,88,440z M151.9,390.3c-0.5-17.8-8.3-34.5-21.7-46.3h219.6
	c-2.9,2.5-5.5,5.3-7.9,8.3L151.9,390.3z M440,392c0,26.5-21.5,48-48,48s-48-21.5-48-48s21.5-48,48-48C418.5,344,440,365.5,440,392z
	 M392,328c-2.7,0-5.3,0.2-8,0.6V120h16v208.6C397.3,328.2,394.7,328,392,328z M432,296h-16v-16h16V296z M464,264h-48V120h28l20,26.7
	V264z"/>
<path class="st0" d="M88,368c-13.3,0-24,10.7-24,24s10.7,24,24,24s24-10.7,24-24S101.3,368,88,368z M88,400c-4.4,0-8-3.6-8-8
	s3.6-8,8-8s8,3.6,8,8S92.4,400,88,400z"/>
<path class="st0" d="M368,392c0,13.3,10.7,24,24,24s24-10.7,24-24s-10.7-24-24-24S368,378.7,368,392z M400,392c0,4.4-3.6,8-8,8
	s-8-3.6-8-8s3.6-8,8-8S400,387.6,400,392z"/>
<path class="st0" d="M432,152h16v16h-16V152z"/>
<path class="st0" d="M432,184h16v16h-16V184z"/>
</svg>
