<svg version="1.1" id="Layer_1" xmlns="http://www.w3.org/2000/svg" xmlns:xlink="http://www.w3.org/1999/xlink" x="0px" y="0px"
	 viewBox="0 0 338.4 338.4" style="enable-background:new 0 0 338.4 338.4;" xml:space="preserve">
<style type="text/css">
	.st0{fill:#F49B25;}
</style>
<g>
	<g>
		<path class="st0" d="M169.2,0C75.6,0,0,75.5,0,169.2s75.5,169.2,169.2,169.2s169.2-75.5,169.2-169.2S262.8,0,169.2,0z
			 M169.2,315.7c-81.2,0-146.6-65.4-146.6-146.6S88,22.6,169.2,22.6S315.7,88,315.7,169.2S250.4,315.7,169.2,315.7z"/>
	</g>
</g>
<g>
	<g>
		<path class="st0" d="M231.2,162.4L156.8,88c-4.5-4.5-11.3-4.5-15.8,0c-4.5,4.5-4.5,11.3,0,15.8l65.4,65.4L141,234.5
			c-4.5,4.5-4.5,11.3,0,15.8c2.2,2.2,4.5,3.4,7.9,3.4c2.2,0,5.7-1.1,9-2.2l73.3-73.3c2.2-2.2,3.4-4.5,3.4-7.9
			C234.5,166.9,233.4,164.6,231.2,162.4z"/>
	</g>
</g>
</svg>
