<?xml version="1.0" encoding="utf-8"?>
<!-- Generator: Adobe Illustrator 22.1.0, SVG Export Plug-In . SVG Version: 6.00 Build 0)  -->
<svg version="1.1" id="Outline" xmlns="http://www.w3.org/2000/svg" xmlns:xlink="http://www.w3.org/1999/xlink" x="0px" y="0px"
	 viewBox="0 0 512 512" style="enable-background:new 0 0 512 512;" xml:space="preserve">
<style type="text/css">
	.st0{fill:#535353;}
</style>
<path class="st0" d="M154.7,134.2c2.8-2.2,6-3.9,9.4-5c2.7-0.8,4.8-2.9,5.5-5.6c6.9-25.6,33.2-40.8,58.8-33.9
	c13.1,3.5,24.1,12.4,30.3,24.6c1,2,2.9,3.5,5,4.1c2.2,0.6,4.6,0.2,6.5-1c14.7-9.7,34.6-5.7,44.3,9c1,1.5,1.9,3.1,2.6,4.8
	c1.3,2.9,4.2,4.8,7.4,4.8c1.1,0,2.2-0.2,3.2-0.6c4-1.8,5.9-6.5,4.1-10.6c0,0,0,0,0,0C324.3,107.3,307.1,96,288,96
	c-6.6,0-13.1,1.4-19.1,4c-19.9-29.2-59.7-36.7-88.9-16.8c-11.4,7.8-20,19.1-24.5,32.2c-3.9,1.6-7.5,3.7-10.7,6.3
	c-3.5,2.7-4.2,7.7-1.6,11.2s7.7,4.2,11.2,1.6C154.5,134.5,154.6,134.3,154.7,134.2z"/>
<path class="st0" d="M315.8,432c-4.2-1.2-8.6,1.3-9.8,5.5l-10,36.6c-1.2,4.3-5.6,6.7-9.9,5.5c-2.3-0.6-4.1-2.2-5.1-4.3l-52-110.7
	c-1.3-2.8-4.1-4.6-7.2-4.6h-62.6c-2.3,0-4.5,1-6.1,2.7L102,421.3c-2.9,3.3-8,3.7-11.3,0.7c-1.6-1.4-2.6-3.4-2.7-5.5
	c-0.1-2.1,0.6-4.2,2-5.8l56-64c1.5-1.7,3.7-2.7,6-2.7h80c3.1,0,6,1.8,7.3,4.6l37.8,81c1.9,4,6.6,5.8,10.6,3.9c2.1-1,3.7-2.8,4.3-5.1
	l45.8-162.2c0.9-4.3-1.9-8.6-6.3-9.4c-3.9-0.8-7.8,1.4-9.1,5.1L304,328H109.1L36.4,168H64c4.4,0,8-3.6,8-8s-3.6-8-8-8H24
	c-2.7,0-5.3,1.4-6.7,3.7c-1.5,2.3-1.7,5.1-0.6,7.6l80,176c1.3,2.9,4.1,4.7,7.3,4.7h23.1l-11.8,13.5c-8.6-3.6-17.9-5.5-27.3-5.5
	c-40.1-0.3-72.8,31.9-73.1,72s31.9,72.8,72,73.1c40.1,0.3,72.8-31.9,73.1-72c0.1-12.4-3-24.6-9-35.5l11.8-13.6h53.8l49.5,106.2
	c3.9,8.4,12.4,13.8,21.8,13.8h1.9c10-0.8,18.5-7.7,21.2-17.4l10.2-36.4c1.4-4.2-0.9-8.7-5.1-10.1C316.1,432.1,316,432,315.8,432
	L315.8,432z M282.5,403l-27.8-59h44.5L282.5,403z M108.5,436.4c-6.7,11.4-21.4,15.2-32.9,8.5c-11.4-6.7-15.2-21.4-8.5-32.9
	c2-3.5,4.9-6.4,8.4-8.4c-6.7,11.4-2.9,26.1,8.5,32.9C91.6,440.9,100.9,440.9,108.5,436.4z M144,424c0,30.9-25.1,56-56,56
	s-56-25.1-56-56s25.1-56,56-56c5.4,0,10.8,0.9,16,2.5L91.8,384c-1.3-0.1-2.6-0.1-3.8,0c-22.1,0-40,17.9-40,40s17.9,40,40,40
	s40-17.9,40-40c0-2.4-0.3-4.8-0.8-7.2l12.4-14.2C142.5,409.4,144,416.7,144,424L144,424z"/>
<path class="st0" d="M472,80h-80c-10.7,0-20.2,7.1-23.1,17.4L353.5,152H96c-4.4,0-8,3.6-8,8s3.6,8,8,8h253l-17.4,61.8
	c-1.5,4.2,0.6,8.7,4.8,10.3c4.2,1.5,8.7-0.6,10.3-4.8c0.1-0.4,0.2-0.8,0.3-1.1L384,101.8c1-3.6,4.3-6,8-5.8h80c4.4,0,8,3.6,8,8
	s-3.6,8-8,8h-67.9c-3.7-0.1-7,2.3-8,5.8l-81.4,288c-1.3,4.2,1.1,8.7,5.3,10c0.2,0.1,0.4,0.1,0.6,0.2c0.7,0.1,1.4,0.1,2.2,0
	c3.7,0.1,7-2.3,8-5.8L410.2,128H472c13.3,0,24-10.7,24-24S485.3,80,472,80L472,80z"/>
</svg>
