<svg version="1.1" id="Capa_1" xmlns="http://www.w3.org/2000/svg" xmlns:xlink="http://www.w3.org/1999/xlink" x="0px" y="0px"
	 viewBox="0 0 480 480" style="enable-background:new 0 0 480 480;" xml:space="preserve">
<style type="text/css">
	.st0{fill:#E5E5E5;}
</style>
<g>
	<g>
		<path class="st0" d="M440,464v-41.4c15.4-6.5,25-21.9,24-38.6c0-22.1-14.4-40-32-40s-32,17.9-32,40c-1,16.6,8.6,32.1,24,38.6V464
			h-40V216c0-3-1.7-5.8-4.4-7.2L320,179.1V136c0-3.6-2.4-6.7-5.8-7.7L208,98V8c0-4.4-3.6-8-8-8H40c-4.4,0-8,3.6-8,8v456H0v16h480
			v-16H440z M192,464H48v-16h72v-16H48v-32h72v-16H48v-32h72v-16H48v-32h72v-16H48v-32h72v-16H48v-32h72v-16H48v-32h72v-16H48v-32
			h72V96H48V64h72V48H48V16h144V464z M304,464h-96v-16h56v-16h-56v-32h56v-16h-56v-32h56v-16h-56v-32h56v-16h-56v-32h56v-16h-56v-32
			h56v-16h-56v-32h56v-16h-56v-29.4l96,27.4V464z M368,464h-48v-16h24v-16h-24v-32h24v-16h-24v-32h24v-16h-24v-32h24v-16h-24v-32h24
			v-16h-24v-43.1l48,24V464z M424,404.6c-5.4-5.5-8.3-12.9-8-20.6c0-13,7.3-24,16-24s16,11,16,24c0.3,7.7-2.6,15.1-8,20.6V392h-16
			V404.6z"/>
	</g>
</g>
</svg>
