<svg xmlns="http://www.w3.org/2000/svg" xmlns:xlink="http://www.w3.org/1999/xlink" viewBox="0 0 74.18 192.41"><defs><style>.a{fill:none;}.b{clip-path:url(#a);}.c{fill:url(#b);}.d{clip-path:url(#c);}.e{fill:url(#d);}.f{clip-path:url(#e);}.g{fill:url(#f);}.h{clip-path:url(#g);}.i{fill:url(#h);}</style><clipPath id="a"><polygon class="a" points="15.17 158.2 0 192.41 74.18 131.02 74.18 110.25 15.17 158.2"/></clipPath><linearGradient id="b" y1="192.38" x2="1" y2="192.38" gradientTransform="matrix(-146.73, 0, 0, 146.73, 184.4, -28077.87)" gradientUnits="userSpaceOnUse"><stop offset="0" stop-color="#edeef0"/><stop offset="0.02" stop-color="#edeef0"/><stop offset="0.19" stop-color="#e7e7ea"/><stop offset="0.45" stop-color="#d5d5d8"/><stop offset="0.74" stop-color="#b7b7bb"/><stop offset="0.98" stop-color="#9a999e"/><stop offset="0.98" stop-color="#9a999e"/><stop offset="1" stop-color="#9a999e"/></linearGradient><clipPath id="c"><polygon class="a" points="35.09 107.28 22.8 143.25 74.18 101.8 74.18 80.06 35.09 107.28"/></clipPath><linearGradient id="d" y1="192.38" y2="192.38" gradientTransform="matrix(-146.53, 0, 0, 146.53, 154, -28077.66)" xlink:href="#b"/><clipPath id="e"><polygon class="a" points="45.62 72.14 37.09 97.05 74.18 71.91 74.18 55.6 45.62 72.14"/></clipPath><linearGradient id="f" y1="192.39" y2="192.39" gradientTransform="matrix(-146.72, 0, 0, 146.72, 125.19, -28150.43)" xlink:href="#b"/><clipPath id="g"><polygon class="a" points="74.18 0 47.7 64.04 74.18 49.95 74.18 0"/></clipPath><linearGradient id="h" y1="192.35" y2="192.35" gradientTransform="matrix(-145.46, 0, 0, 145.46, 86.2, -27947.22)" xlink:href="#b"/></defs><title>flecha_bg</title><g class="b"><rect class="c" x="-14.27" y="102.34" width="102.71" height="97.98" transform="translate(-117.74 133.9) rotate(-69.81)"/></g><g class="d"><rect class="e" x="9.97" y="76.64" width="77.04" height="70.03" transform="translate(-73.04 118.62) rotate(-69.81)"/></g><g class="f"><rect class="g" x="29.78" y="51.77" width="51.7" height="49.12" transform="translate(-35.2 102.19) rotate(-69.81)"/></g><g class="h"><rect class="i" x="26.32" y="8.54" width="69.25" height="46.96" transform="translate(9.85 78.16) rotate(-69.81)"/></g></svg>