<?xml version="1.0" encoding="utf-8"?>
<!-- Generator: Adobe Illustrator 22.1.0, SVG Export Plug-In . SVG Version: 6.00 Build 0)  -->
<svg version="1.1" id="Camada_1" xmlns="http://www.w3.org/2000/svg" xmlns:xlink="http://www.w3.org/1999/xlink" x="0px" y="0px"
	 viewBox="0 0 512 512" style="enable-background:new 0 0 512 512;" xml:space="preserve">
<style type="text/css">
	.st0{fill:#535353;}
</style>
<title>demolition-crane-truck-construction-transportation</title>
<g id="Expand">
	<rect x="16" y="480" class="st0" width="16" height="16"/>
	<path class="st0" d="M408,280c-4.4,0-8,3.6-8,8v28.2c-37.5,13.3-57.1,54.4-43.9,91.9c13.3,37.5,54.4,57.1,91.9,43.9
		c37.5-13.3,57.1-54.4,43.9-91.9c-7.2-20.5-23.4-36.6-43.9-43.9V288c0-4.4-3.6-8-8-8h-8V139.3l21.7-21.7c3.1-3.1,3.1-8.2,0-11.3
		l-56-56c-3.1-3.1-8.2-3.1-11.3,0l-23.4,23.4L173.6,200H112c-4.4,0-8,3.6-8,8v72h-8c-4.4,0-8,3.6-8,8v67.4
		c-18.5,5.2-34.9,16.4-46.4,31.8l12.8,9.6c2.7-3.6,5.8-6.9,9.2-9.9l11.3,11.3c-23.1,20.4-25.3,55.6-4.9,78.7
		c0.9,1.1,1.9,2.1,2.9,3.1H48v16h448v-16H279.1c22.1-21.5,22.6-56.8,1.1-78.9c-1-1-2-2-3.1-2.9l11.3-11.3c3.4,3,6.4,6.3,9.2,9.9
		l12.8-9.6c-11.5-15.4-27.9-26.6-46.4-31.8V320c0-4.2-3.2-7.7-7.4-8l-24.6-1.9v-26.7l167.9-160.2l16.1,16.1V280H408z M392,67.3
		l44.7,44.7L424,124.7L379.3,80L392,67.3z M120,216h24v64h-24V216z M280,440c0,22.1-17.9,40-40,40H112c-22.1,0-40-17.9-40-40
		s17.9-40,40-40h128C262.1,400,280,417.9,280,440z M263.5,389.2c-7.3-3.4-15.4-5.2-23.5-5.2H112c-8.1,0-16.1,1.8-23.5,5.2
		l-11.9-11.9c10.8-6.1,23-9.3,35.4-9.3h128c12.4,0,24.6,3.2,35.4,9.3L263.5,389.2z M248,352.5c-2.6-0.2-5.3-0.5-8-0.5H112
		c-2.7,0-5.4,0.2-8,0.5V296h40v16c0,4.2,3.2,7.7,7.4,8l96.6,7.4V352.5z M160,304.6V216h16c22.1,0,40,17.9,40,40v52.9L160,304.6z
		 M196.5,203.9l74.5-49.6l35.7,35.7L232,261.3V256C232,233,217.9,212.4,196.5,203.9z M318.3,179l-33.7-33.7L367,90.3l21.6,21.6
		L318.3,179z M480,384c0,30.9-25.1,56-56,56s-56-25.1-56-56s25.1-56,56-56C454.9,328,480,353.1,480,384z M424,312
		c-2.7,0-5.3,0.2-8,0.5V296h16v16.5C429.3,312.2,426.7,312,424,312z"/>
	<path class="st0" d="M240,416c-13.3,0-24,10.7-24,24s10.7,24,24,24s24-10.7,24-24l0,0C264,426.7,253.3,416,240,416z M240,448
		c-4.4,0-8-3.6-8-8s3.6-8,8-8s8,3.6,8,8S244.4,448,240,448z"/>
	<path class="st0" d="M176,416c-13.3,0-24,10.7-24,24s10.7,24,24,24s24-10.7,24-24l0,0C200,426.7,189.3,416,176,416z M176,448
		c-4.4,0-8-3.6-8-8s3.6-8,8-8s8,3.6,8,8S180.4,448,176,448z"/>
	<path class="st0" d="M112,416c-13.3,0-24,10.7-24,24s10.7,24,24,24s24-10.7,24-24l0,0C136,426.7,125.3,416,112,416z M112,448
		c-4.4,0-8-3.6-8-8s3.6-8,8-8s8,3.6,8,8S116.4,448,112,448z"/>
	
		<rect x="203.9" y="96" transform="matrix(0.8321 -0.5547 0.5547 0.8321 -11.3374 170.5637)" class="st0" width="144.2" height="16"/>
	
		<rect x="182.4" y="152" transform="matrix(0.8319 -0.5549 0.5549 0.8319 -56.5126 133.4306)" class="st0" width="19.2" height="16"/>
</g>
</svg>
