<?xml version="1.0" encoding="utf-8"?>
<!-- Generator: Adobe Illustrator 22.1.0, SVG Export Plug-In . SVG Version: 6.00 Build 0)  -->
<svg version="1.1" id="Camada_1" xmlns="http://www.w3.org/2000/svg" xmlns:xlink="http://www.w3.org/1999/xlink" x="0px" y="0px"
	 viewBox="0 0 512 512" style="enable-background:new 0 0 512 512;" xml:space="preserve">
<style type="text/css">
	.st0{fill:#535353;}
</style>
<path class="st0" d="M17.1,332.8h170.7c9.4,0,17.1-7.6,17.1-17.1V196.3c0-9.4-7.6-17.1-17.1-17.1H17.1c-9.4,0-17.1,7.6-17.1,17.1
	v119.5C0,325.2,7.6,332.8,17.1,332.8z M17.1,196.3h170.7l0,119.5H17.1V196.3z"/>
<path class="st0" d="M17.1,512h68.3c9.4,0,17.1-7.6,17.1-17.1V375.5c0-9.4-7.6-17.1-17.1-17.1H17.1C7.6,358.4,0,366,0,375.5v119.5
	C0,504.4,7.6,512,17.1,512z M17.1,375.5h68.3l0,119.5H17.1V375.5z"/>
<path class="st0" d="M494.9,0H17.1C7.6,0,0,7.6,0,17.1v119.5c0,9.4,7.6,17.1,17.1,17.1h235c4.8,8.2,8.9,16.7,12.4,25.6h-16.9
	c-9.4,0-17.1,7.6-17.1,17.1v119.5c0,9.4,7.6,17.1,17.1,17.1h16.4c-0.1,3.9-0.3,7.7-0.3,11.5c0.1,4.5,0.3,9.2,0.6,14.1H145.1
	c-9.4,0-17.1,7.6-17.1,17.1v119.5c0,9.4,7.6,17.1,17.1,17.1h349.9c9.4,0,17.1-7.6,17.1-17.1V17.1C512,7.6,504.4,0,494.9,0z
	 M17.1,17.1h142.9c-0.5,12-0.2,23.9,1.2,35.8c4.7,24.5,23.8,36.9,40.7,47.8l2.7,1.8c13.9,9.2,26.1,20.7,36.1,34.1H17.1V17.1z
	 M247.5,196.3h22.4c3.9,14.2,6,28.9,6.3,43.7c-0.2,13.2-2.1,26.3-5.4,39c-1.3,5.8-2.5,11.6-3.6,17.5c-1.1,6.3-1.8,12.7-2.4,19.2
	h-17.3V196.3z M145.1,375.5h120.8c4.5,43.5,21.1,84.9,47.9,119.5H145.1V375.5z M494.9,494.9H336.4c-32.1-35.6-51.3-81-54.6-128.8
	c-0.7-7.7-1.1-15.1-1.2-22c-0.1-6.4,0.1-12.9,0.5-19.4c0.4-8.5,1.3-16.9,2.8-25.2c1-5.7,2.2-11.3,3.5-16.8c3.6-14,5.6-28.5,5.8-43
	c-0.3-18.5-3.2-36.8-8.7-54.5c-4.9-15.7-11.7-30.6-20.3-44.6c-12.7-21-29.9-38.9-50.3-52.4l-2.8-1.8c-16-10.4-29.9-19.3-33.2-36.4
	c-1-10.9-1.3-21.9-1-32.8h318V494.9z"/>
<path class="st0" d="M195,48c2.6,8.9,11.3,14.9,25.4,24l2.9,1.9c22.5,14.9,41.4,34.5,55.4,57.6c9.5,15.3,16.9,31.6,22.2,48.8
	c1.4,4.5,6.2,7,10.7,5.6c4.5-1.4,7-6.2,5.6-10.7c-5.7-18.5-13.8-36.2-24-52.7c-15.3-25.2-36-46.7-60.6-62.9l-2.9-1.9
	c-6.7-3.7-12.7-8.4-18-13.9l-0.1-1.7c-0.3-4.7-4.4-8.3-9.1-8c-4.7,0.3-8.3,4.4-7.9,9.1c0.1,1.2,0.2,2.3,0.3,3.3
	C194.8,47,194.9,47.5,195,48z"/>
<path class="st0" d="M310.3,239.4c-0.2,16-2.3,32-6.3,47.5c-1.1,5.1-2.3,10.3-3.2,15.6c-1.4,7.8-2.2,15.6-2.6,23.5
	c-0.4,6-0.5,12.1-0.5,18c0.1,6.5,0.4,13.4,1.1,20.6c2.8,40.2,17.6,78.6,42.5,110.2c1.9,2.5,5,3.7,8.1,3.2c3.1-0.5,5.6-2.6,6.7-5.5
	c1.1-2.9,0.4-6.2-1.6-8.5c-22.5-29.1-36-64.2-38.6-100.9c-0.6-6.7-0.9-13.2-1-19.2c-0.1-5.5,0.1-11.1,0.4-16.9
	c0.3-7.2,1.1-14.4,2.3-21.5c0.9-5.1,2-10,3.2-15.4c4.3-16.6,6.5-33.7,6.6-50.9c-0.1-4.7-3.9-8.4-8.5-8.4h-0.1c-2.3,0-4.4,1-6,2.6
	C311.1,234.9,310.2,237.1,310.3,239.4z"/>
</svg>
